<svg version="1.0" xmlns="http://www.w3.org/2000/svg" width="174.667" height="174.667" viewBox="0 0 131 131"><path d="M50.2 1.9C31.7 6.5 15.3 19.5 7.3 36c-9.7 19.9-9.7 39.1 0 59 5.8 11.9 16.8 22.9 28.7 28.7 19.9 9.7 39.1 9.7 59 0 11.9-5.8 22.9-16.8 28.7-28.7 9.7-19.9 9.7-39.1 0-59-5.8-11.9-16.8-22.9-28.7-28.7-14.9-7.2-29.9-9-44.8-5.4zm-5.4 34.3c.5.7 5.3 13.6 10.6 28.7s9.8 27.7 10.1 28c.4.3.9.1 1.3-.5s4.7-7.2 9.5-14.7l8.8-13.5-9-13.8c-4.9-7.6-8.8-14.1-8.6-14.4.2-.3 3.4-.4 7.2-.2l6.8.4 5.9 9.9c3.2 5.4 5.9 9.9 6.1 9.9.2 0 3-4.5 6.1-10l5.9-10h6.7c3.8 0 6.8.2 6.8.5s-2 3.6-4.5 7.5c-2.5 3.8-6.5 10.1-8.9 13.9l-4.4 6.9 9.4 14.1c5.2 7.7 9.4 14.5 9.4 15.1 0 .6-2.8 1-6.7 1h-6.8l-4.4-7.3c-2.5-3.9-5.5-8.9-6.9-11.1l-2.4-3.8-6.7 10.8-6.7 10.9H52.5L50.4 88l-2.1-6.5-11-.3-10.9-.3-2 6.8-1.9 6.8-5.9.3c-3.2.2-6.2-.1-6.6-.5-.6-.6 14.4-45.3 19.2-57.6.6-1.4 2-1.7 7.6-1.7 4.4 0 7.3.5 8 1.2z"/><path d="M37.1 47.1c-.1.3-1.4 5-3.1 10.5-1.6 5.4-3 10.5-3 11.1 0 .9 2 1.3 6.5 1.3 5.5 0 6.5-.3 6.5-1.8-.1-1.7-6.7-22.3-6.9-21.1z"/></svg>