<svg id="thin-arrow" xmlns="http://www.w3.org/2000/svg" viewBox="0 0 1504.4 150"><path d="M10 0c7.4.6 14.9 1.3 22.3 1.7C110.2 5.6 188.1 9.3 266 13.2 363.7 18 461.4 23 559.1 27.8 643.3 32 727.5 36 811.7 40.2c97.4 4.8 194.7 9.7 292.1 14.6 64.1 3.2 128.2 6.3 192.2 9.4 68.6 3.4 137.1 6.7 205.7 10 .9 0 1.8.2 2.7 1.2-8.9.4-17.7.8-26.6 1.3-78.1 3.8-156.1 7.6-234.2 11.5-80.7 4-161.4 8-242.2 12-101 5-202 10-303.1 15-80.6 4-161.1 8-241.7 12-101 5-202 10-303.1 15-46.3 2.3-92.5 4.6-138.8 6.9-2 .1-3.9.5-5.9.8h-9C0 100 0 50 0 0h10z"/></svg>