<svg id="upload" xmlns="http://www.w3.org/2000/svg" viewBox="0 0 548.176 548.176"><path d="M524.326 297.352c-15.896-19.89-36.21-32.782-60.959-38.684 7.81-11.8 11.704-24.934 11.704-39.399 0-20.177-7.139-37.401-21.409-51.678-14.273-14.272-31.498-21.411-51.675-21.411-18.083 0-33.879 5.901-47.39 17.703-11.225-27.41-29.171-49.393-53.817-65.95-24.646-16.562-51.818-24.842-81.514-24.842-40.349 0-74.802 14.279-103.353 42.83-28.553 28.544-42.825 62.999-42.825 103.351 0 2.474.191 6.567.571 12.275-22.459 10.469-40.349 26.171-53.676 47.106C6.661 299.594 0 322.43 0 347.179c0 35.214 12.517 65.329 37.544 90.358 25.028 25.037 55.15 37.548 90.362 37.548h310.636c30.259 0 56.096-10.711 77.512-32.12 21.413-21.409 32.121-47.246 32.121-77.516-.003-25.505-7.952-48.201-23.849-68.097zm-161.597-7.704c-1.813 1.804-3.949 2.707-6.42 2.707h-63.953v100.502c0 2.471-.903 4.613-2.711 6.42-1.813 1.813-3.949 2.711-6.42 2.711h-54.826c-2.474 0-4.615-.897-6.423-2.711-1.804-1.807-2.712-3.949-2.712-6.42V292.355H155.31c-2.662 0-4.853-.855-6.563-2.563-1.713-1.714-2.568-3.904-2.568-6.566 0-2.286.95-4.572 2.852-6.855l100.213-100.21c1.713-1.714 3.903-2.57 6.567-2.57 2.666 0 4.856.856 6.567 2.57l100.499 100.495c1.714 1.712 2.562 3.901 2.562 6.571-.001 2.469-.904 4.618-2.71 6.421z"/></svg>