<svg id="wifi" xmlns="http://www.w3.org/2000/svg" viewBox="0 0 512 512"><path d="M10.667 0C4.779 0 0 4.779 0 10.667V96c0 5.888 4.779 10.667 10.667 10.667 217.621 0 394.667 177.045 394.667 394.667 0 5.888 4.779 10.667 10.667 10.667h85.333c5.888 0 10.667-4.779 10.667-10.667C512 224.896 287.104 0 10.667 0z"/><path d="M10.667 170.667C4.779 170.667 0 175.445 0 181.333v85.333c0 5.888 4.779 10.667 10.667 10.667 123.52 0 224 100.48 224 224 0 5.888 4.779 10.667 10.667 10.667h85.333c5.888 0 10.667-4.779 10.667-10.667-.001-182.336-148.331-330.666-330.667-330.666z"/><circle cx="74.667" cy="437.333" r="74.667"/></svg>